<svg xmlns="http://www.w3.org/2000/svg" xmlns:xlink="http://www.w3.org/1999/xlink" width="500" zoomAndPan="magnify" viewBox="0 0 375 374.999991" height="500" preserveAspectRatio="xMidYMid meet" version="1.0"><defs><clipPath id="c41db18888"><path d="M 142.046875 90.59375 L 232.796875 90.59375 L 232.796875 221.09375 L 142.046875 221.09375 Z M 142.046875 90.59375 " clip-rule="nonzero"/></clipPath></defs><g clip-path="url(#c41db18888)"><path fill="#ede9dd" d="M 155.371094 168.429688 C 153.792969 166.847656 152.335938 165.152344 151.003906 163.351562 C 149.671875 161.550781 148.480469 159.660156 147.425781 157.683594 C 146.371094 155.707031 145.46875 153.664062 144.714844 151.550781 C 143.960938 149.441406 143.367188 147.285156 142.933594 145.085938 C 142.496094 142.886719 142.222656 140.667969 142.113281 138.429688 C 142.003906 136.1875 142.058594 133.953125 142.277344 131.722656 C 142.496094 129.488281 142.878906 127.285156 143.421875 125.113281 C 143.964844 122.9375 144.664062 120.8125 145.519531 118.742188 C 146.375 116.671875 147.375 114.671875 148.527344 112.75 C 149.675781 110.828125 150.957031 109 152.375 107.265625 C 153.792969 105.53125 155.332031 103.914062 156.988281 102.40625 C 158.644531 100.902344 160.402344 99.523438 162.261719 98.28125 C 164.121094 97.035156 166.058594 95.933594 168.082031 94.972656 C 170.101562 94.015625 172.179688 93.210938 174.320312 92.558594 C 176.460938 91.90625 178.632812 91.417969 180.847656 91.089844 C 183.058594 90.761719 185.28125 90.59375 187.515625 90.59375 L 230.820312 90.59375 L 230.820312 140 L 225.367188 140 L 225.367188 96.066406 L 187.515625 96.066406 C 165.457031 96.066406 147.511719 114.066406 147.511719 136.191406 C 147.511719 158.316406 165.457031 176.316406 187.515625 176.316406 L 187.515625 181.785156 C 184.53125 181.792969 181.574219 181.507812 178.644531 180.925781 C 175.714844 180.347656 172.871094 179.484375 170.109375 178.335938 C 167.351562 177.191406 164.734375 175.785156 162.25 174.117188 C 159.769531 172.449219 157.476562 170.554688 155.371094 168.429688 Z M 219.027344 129.34375 L 219.027344 102.199219 L 187.515625 102.199219 C 168.828125 102.199219 153.625 117.445312 153.625 136.191406 C 153.625 154.933594 168.828125 170.183594 187.515625 170.183594 L 187.515625 164.714844 C 171.835938 164.714844 159.078125 151.917969 159.078125 136.191406 C 159.078125 120.464844 171.832031 107.667969 187.515625 107.667969 L 213.578125 107.667969 L 213.578125 129.34375 Z M 207.191406 123.59375 L 207.191406 113.800781 L 187.515625 113.800781 C 186.785156 113.800781 186.054688 113.835938 185.328125 113.910156 C 184.601562 113.980469 183.878906 114.089844 183.164062 114.234375 C 182.445312 114.378906 181.738281 114.554688 181.039062 114.769531 C 180.339844 114.980469 179.652344 115.230469 178.976562 115.511719 C 178.300781 115.792969 177.640625 116.105469 176.996094 116.449219 C 176.351562 116.796875 175.726562 117.171875 175.121094 117.582031 C 174.511719 117.988281 173.925781 118.425781 173.359375 118.890625 C 172.796875 119.355469 172.253906 119.847656 171.738281 120.363281 C 171.222656 120.882812 170.730469 121.425781 170.265625 121.992188 C 169.804688 122.558594 169.367188 123.148438 168.960938 123.757812 C 168.554688 124.367188 168.179688 124.992188 167.835938 125.640625 C 167.492188 126.285156 167.179688 126.949219 166.898438 127.625 C 166.617188 128.304688 166.371094 128.992188 166.160156 129.695312 C 165.945312 130.394531 165.769531 131.105469 165.625 131.824219 C 165.480469 132.542969 165.375 133.265625 165.300781 133.996094 C 165.230469 134.726562 165.191406 135.457031 165.191406 136.191406 C 165.191406 148.472656 175.109375 158.480469 187.332031 158.578125 C 187.886719 158.574219 188.441406 158.59375 188.996094 158.644531 C 189.550781 158.695312 190.101562 158.769531 190.648438 158.875 C 191.195312 158.976562 191.734375 159.109375 192.265625 159.265625 C 192.800781 159.421875 193.324219 159.605469 193.839844 159.816406 C 194.355469 160.027344 194.859375 160.261719 195.351562 160.519531 C 195.84375 160.78125 196.324219 161.0625 196.785156 161.371094 C 197.25 161.675781 197.699219 162.007812 198.132812 162.359375 C 198.5625 162.707031 198.976562 163.082031 199.371094 163.472656 C 199.765625 163.867188 200.140625 164.277344 200.496094 164.707031 C 200.851562 165.136719 201.183594 165.582031 201.496094 166.042969 C 201.804688 166.507812 202.09375 166.984375 202.355469 167.476562 C 202.621094 167.964844 202.859375 168.46875 203.074219 168.984375 C 203.289062 169.5 203.476562 170.023438 203.636719 170.554688 C 203.800781 171.089844 203.9375 171.628906 204.046875 172.175781 C 204.15625 172.722656 204.238281 173.273438 204.292969 173.832031 C 204.347656 174.386719 204.375 174.941406 204.375 175.5 C 204.375 176.058594 204.347656 176.613281 204.292969 177.167969 C 204.238281 177.722656 204.15625 178.273438 204.046875 178.820312 C 203.9375 179.367188 203.800781 179.910156 203.636719 180.441406 C 203.476562 180.976562 203.289062 181.5 203.074219 182.015625 C 202.859375 182.53125 202.621094 183.03125 202.355469 183.523438 C 202.09375 184.015625 201.804688 184.492188 201.496094 184.953125 C 201.183594 185.417969 200.851562 185.863281 200.496094 186.292969 C 200.140625 186.722656 199.765625 187.132812 199.371094 187.527344 C 198.976562 187.917969 198.5625 188.289062 198.132812 188.640625 C 197.699219 188.992188 197.25 189.320312 196.785156 189.628906 C 196.324219 189.9375 195.84375 190.21875 195.351562 190.480469 C 194.859375 190.738281 194.355469 190.972656 193.839844 191.183594 C 193.324219 191.390625 192.800781 191.574219 192.265625 191.734375 C 191.734375 191.890625 191.195312 192.019531 190.648438 192.125 C 190.101562 192.230469 189.550781 192.304688 188.996094 192.355469 C 188.441406 192.40625 187.886719 192.425781 187.332031 192.421875 L 173.117188 192.421875 L 173.117188 188.097656 L 167.664062 188.097656 L 167.664062 197.890625 L 187.328125 197.890625 C 188.058594 197.890625 188.785156 197.851562 189.515625 197.78125 C 190.242188 197.707031 190.964844 197.601562 191.679688 197.457031 C 192.398438 197.3125 193.105469 197.136719 193.804688 196.921875 C 194.503906 196.707031 195.191406 196.460938 195.867188 196.179688 C 196.542969 195.898438 197.203125 195.585938 197.847656 195.242188 C 198.492188 194.894531 199.117188 194.519531 199.726562 194.109375 C 200.332031 193.703125 200.917969 193.265625 201.484375 192.800781 C 202.050781 192.335938 202.589844 191.84375 203.105469 191.328125 C 203.625 190.808594 204.113281 190.265625 204.578125 189.699219 C 205.042969 189.132812 205.476562 188.546875 205.882812 187.933594 C 206.289062 187.324219 206.664062 186.699219 207.011719 186.050781 C 207.355469 185.40625 207.667969 184.742188 207.949219 184.066406 C 208.230469 183.390625 208.476562 182.699219 208.6875 182 C 208.902344 181.296875 209.078125 180.585938 209.222656 179.867188 C 209.363281 179.148438 209.472656 178.425781 209.546875 177.695312 C 209.617188 176.964844 209.65625 176.234375 209.65625 175.5 C 209.65625 163.214844 199.738281 153.210938 187.515625 153.113281 C 186.960938 153.117188 186.40625 153.097656 185.851562 153.046875 C 185.296875 152.996094 184.746094 152.921875 184.199219 152.816406 C 183.652344 152.714844 183.113281 152.582031 182.582031 152.425781 C 182.046875 152.265625 181.523438 152.082031 181.007812 151.875 C 180.492188 151.664062 179.988281 151.429688 179.496094 151.171875 C 179.003906 150.910156 178.523438 150.628906 178.0625 150.320312 C 177.597656 150.015625 177.148438 149.683594 176.714844 149.332031 C 176.285156 148.980469 175.871094 148.609375 175.476562 148.21875 C 175.082031 147.824219 174.707031 147.414062 174.351562 146.984375 C 173.996094 146.554688 173.664062 146.109375 173.351562 145.644531 C 173.042969 145.183594 172.753906 144.707031 172.492188 144.214844 C 172.226562 143.722656 171.988281 143.222656 171.773438 142.707031 C 171.558594 142.191406 171.371094 141.667969 171.210938 141.132812 C 171.046875 140.601562 170.910156 140.0625 170.800781 139.515625 C 170.691406 138.96875 170.609375 138.414062 170.554688 137.859375 C 170.5 137.304688 170.472656 136.75 170.472656 136.191406 C 170.472656 135.632812 170.5 135.078125 170.554688 134.523438 C 170.609375 133.96875 170.691406 133.414062 170.800781 132.867188 C 170.910156 132.320312 171.046875 131.78125 171.210938 131.25 C 171.371094 130.714844 171.558594 130.191406 171.773438 129.675781 C 171.988281 129.160156 172.226562 128.660156 172.492188 128.167969 C 172.753906 127.675781 173.042969 127.199219 173.351562 126.738281 C 173.664062 126.273438 173.996094 125.828125 174.351562 125.398438 C 174.707031 124.96875 175.082031 124.558594 175.476562 124.164062 C 175.871094 123.773438 176.285156 123.402344 176.714844 123.050781 C 177.148438 122.699219 177.597656 122.367188 178.0625 122.0625 C 178.523438 121.753906 179.003906 121.472656 179.496094 121.210938 C 179.988281 120.953125 180.492188 120.71875 181.007812 120.507812 C 181.523438 120.300781 182.046875 120.117188 182.582031 119.957031 C 183.113281 119.800781 183.652344 119.667969 184.199219 119.566406 C 184.746094 119.460938 185.296875 119.386719 185.851562 119.335938 C 186.40625 119.285156 186.960938 119.265625 187.515625 119.269531 L 201.730469 119.269531 L 201.730469 123.601562 Z M 219.480469 143.257812 C 217.375 141.136719 215.078125 139.238281 212.597656 137.570312 C 210.117188 135.902344 207.496094 134.496094 204.738281 133.351562 C 201.976562 132.203125 199.132812 131.34375 196.203125 130.761719 C 193.273438 130.183594 190.3125 129.898438 187.328125 129.90625 L 187.328125 135.375 C 209.386719 135.375 227.332031 153.375 227.332031 175.5 C 227.332031 197.625 209.390625 215.632812 187.328125 215.632812 L 149.480469 215.632812 L 149.480469 171.691406 L 144.027344 171.691406 L 144.027344 221.09375 L 187.328125 221.09375 C 189.5625 221.097656 191.785156 220.929688 193.996094 220.601562 C 196.207031 220.273438 198.382812 219.785156 200.523438 219.132812 C 202.664062 218.484375 204.742188 217.679688 206.761719 216.71875 C 208.785156 215.761719 210.722656 214.660156 212.582031 213.414062 C 214.441406 212.167969 216.199219 210.792969 217.855469 209.285156 C 219.511719 207.78125 221.050781 206.160156 222.46875 204.429688 C 223.886719 202.695312 225.171875 200.867188 226.320312 198.945312 C 227.46875 197.019531 228.472656 195.023438 229.328125 192.953125 C 230.183594 190.878906 230.882812 188.757812 231.425781 186.582031 C 231.96875 184.40625 232.351562 182.203125 232.570312 179.972656 C 232.789062 177.738281 232.84375 175.503906 232.734375 173.265625 C 232.625 171.023438 232.351562 168.804688 231.917969 166.605469 C 231.480469 164.40625 230.886719 162.253906 230.132812 160.140625 C 229.378906 158.03125 228.476562 155.984375 227.421875 154.007812 C 226.367188 152.03125 225.175781 150.140625 223.84375 148.339844 C 222.511719 146.539062 221.054688 144.84375 219.476562 143.257812 Z M 155.8125 182.34375 L 155.8125 209.492188 L 187.328125 209.492188 C 206.011719 209.492188 221.21875 194.242188 221.21875 175.5 C 221.21875 156.757812 206.019531 141.507812 187.328125 141.507812 L 187.328125 146.976562 C 203.007812 146.976562 215.765625 159.773438 215.765625 175.5 C 215.765625 191.226562 203.011719 204.023438 187.328125 204.023438 L 161.269531 204.023438 L 161.269531 182.34375 Z M 155.8125 182.34375 " fill-opacity="1" fill-rule="nonzero"/></g></svg>