<svg xmlns="http://www.w3.org/2000/svg" xmlns:xlink="http://www.w3.org/1999/xlink" width="500" zoomAndPan="magnify" viewBox="0 0 375 374.999991" height="500" preserveAspectRatio="xMidYMid meet" version="1.0"><defs><g/></defs><g fill="#000000" fill-opacity="1"><g transform="translate(14.62375, 210.374986)"><g><path d="M 24.796875 -43.394531 C 19.847656 -43.394531 14.847656 -40.597656 13.199219 -35.546875 C 12.898438 -34.546875 12.699219 -33.597656 12.699219 -32.648438 C 12.699219 -28.296875 15.699219 -24.996094 18.546875 -21.496094 C 20.898438 -18.648438 23.097656 -16.296875 23.097656 -13.296875 C 23.097656 -9.25 19.546875 -6.800781 16.296875 -6.800781 C 12.699219 -6.847656 9.847656 -8.949219 9.898438 -12.5 C 9.949219 -12.75 9.949219 -13 9.949219 -13.199219 C 9.949219 -16.046875 8.050781 -17.347656 6.097656 -17.347656 C 4.097656 -17.347656 2.050781 -15.898438 2.050781 -13.097656 C 1.800781 -5.148438 8.800781 0 16.347656 0 C 24.347656 0 31.597656 -6.300781 31.597656 -14 C 31.597656 -19.199219 28.148438 -23.199219 25.097656 -26.597656 L 24.496094 -27.246094 C 22.597656 -29.296875 21.097656 -31.546875 21.097656 -33.398438 C 21.097656 -35.597656 23.648438 -36.546875 24.796875 -36.496094 C 26.347656 -36.394531 27.445312 -35.296875 28.296875 -33.597656 C 28.945312 -32.046875 30.246094 -31.347656 31.597656 -31.347656 C 33.398438 -31.347656 35.195312 -32.695312 35.195312 -34.996094 C 35.195312 -35.496094 35.148438 -35.945312 34.996094 -36.496094 C 33.847656 -40.394531 29.898438 -43.394531 24.796875 -43.394531 Z M 24.796875 -43.394531 "/></g></g></g><g fill="#000000" fill-opacity="1"><g transform="translate(48.51849, 210.374986)"><g><path d="M 31.347656 -16.898438 C 29.945312 -16.898438 28.398438 -16.046875 27.796875 -14.148438 C 25.847656 -8 22.699219 -5.949219 20.449219 -5.949219 C 19.597656 -5.949219 19.097656 -6.398438 19.097656 -7.199219 C 19.097656 -7.597656 19.199219 -8.097656 19.347656 -8.648438 L 24.949219 -24.847656 C 25.148438 -25.449219 25.246094 -25.996094 25.246094 -26.496094 C 25.246094 -28.695312 23.449219 -29.847656 21.597656 -29.847656 C 20.199219 -29.847656 18.75 -29.195312 17.949219 -27.945312 C 16.898438 -28.597656 14.949219 -29.347656 12.398438 -29.347656 C 9.097656 -29.347656 5.5 -27.546875 4.148438 -23.699219 L -0.550781 -10.25 C -0.851562 -9.347656 -1.050781 -8.449219 -1.050781 -7.550781 C -1.050781 -3.398438 2.300781 0 6.699219 0 C 9.050781 0 11.449219 -1.050781 13.296875 -2.699219 C 14.898438 -0.398438 18.449219 0 19.949219 0 C 24.097656 0 29.648438 -2.101562 32.847656 -10.199219 C 33.546875 -12.148438 34.097656 -13.398438 34.097656 -14.296875 C 34.097656 -16 32.796875 -16.898438 31.347656 -16.898438 Z M 14.847656 -17.398438 L 12.449219 -9.949219 C 11.398438 -6.699219 9.5 -5.949219 8.449219 -5.949219 C 7.347656 -5.949219 6.800781 -6.648438 6.800781 -7.800781 C 6.800781 -8.449219 6.949219 -9.050781 7.097656 -9.5 L 10.300781 -19.546875 C 11.25 -22.597656 12.648438 -22.996094 13.449219 -22.996094 C 14.398438 -22.996094 15.449219 -22.046875 15.449219 -20.347656 C 15.449219 -19.597656 15.25 -18.648438 14.847656 -17.398438 Z M 14.847656 -17.398438 "/></g></g></g><g fill="#000000" fill-opacity="1"><g transform="translate(74.664424, 210.374986)"><g><path d="M 6.847656 -8.148438 L 17.347656 -38.546875 C 17.546875 -39.144531 17.648438 -39.746094 17.648438 -40.246094 C 17.648438 -42.144531 15.847656 -43.394531 14.347656 -43.394531 C 12.449219 -43.394531 11.199219 -42.347656 10.398438 -40.097656 L 0 -10.398438 C -0.398438 -9.25 -0.601562 -8.199219 -0.601562 -7.148438 C -0.601562 -2.550781 3.199219 0 7.597656 0 C 12.347656 0 18.296875 -2.949219 21.796875 -13.347656 C 21.898438 -13.699219 21.949219 -14.046875 21.949219 -14.347656 C 21.949219 -15.949219 20.546875 -17.097656 19 -17.097656 C 17.75 -17.097656 16.398438 -16.347656 15.699219 -14.5 C 13.449219 -8.5 10.550781 -5.949219 8.199219 -5.949219 C 7.199219 -5.949219 6.648438 -6.550781 6.648438 -7.300781 C 6.648438 -7.5 6.75 -7.847656 6.847656 -8.148438 Z M 6.847656 -8.148438 "/></g></g></g><g fill="#000000" fill-opacity="1"><g transform="translate(88.512266, 210.374986)"><g><path d="M 25.296875 -14.097656 C 23.097656 -8.300781 17.847656 -5.949219 13.597656 -5.949219 C 9.949219 -5.949219 7.648438 -7.699219 7.648438 -10 C 7.648438 -10.449219 7.699219 -10.898438 7.898438 -11.398438 L 8.300781 -12.347656 C 9.75 -11.449219 11.550781 -10.847656 13.546875 -10.847656 C 18.097656 -10.847656 22.097656 -13.699219 23.449219 -18.199219 C 23.699219 -19.148438 23.847656 -20.097656 23.847656 -20.949219 C 23.847656 -25.699219 20.097656 -29.347656 14.449219 -29.347656 C 10 -29.347656 5.648438 -26.746094 3.898438 -21.746094 L 0.949219 -13.199219 C 0.550781 -12 0.300781 -10.800781 0.300781 -9.648438 C 0.300781 -3.699219 5.898438 0 13.199219 0 C 20.148438 0 28.046875 -3.398438 31.347656 -12.949219 C 31.496094 -13.347656 31.546875 -13.699219 31.546875 -14 C 31.546875 -15.546875 30.148438 -16.398438 28.648438 -16.398438 C 27.246094 -16.398438 25.746094 -15.648438 25.296875 -14.097656 Z M 14.296875 -23.449219 C 15.699219 -23.449219 16.597656 -22.296875 16.597656 -20.847656 C 16.597656 -20.449219 16.546875 -20.046875 16.398438 -19.648438 C 15.898438 -18 14.398438 -17.398438 12.898438 -17.398438 C 11.949219 -17.398438 11 -17.597656 10.300781 -18 L 11.347656 -20.996094 C 11.898438 -22.546875 13.148438 -23.449219 14.296875 -23.449219 Z M 14.296875 -23.449219 "/></g></g></g><g fill="#000000" fill-opacity="1"><g transform="translate(112.108591, 210.374986)"><g><path d="M 44.296875 -16.75 C 42.945312 -16.75 41.496094 -16 40.996094 -14.398438 C 38.796875 -8.398438 36.046875 -5.949219 33.695312 -5.949219 C 32.695312 -5.949219 32.195312 -6.550781 32.195312 -7.300781 C 32.195312 -7.550781 32.195312 -7.800781 32.296875 -8 L 36.546875 -19.648438 C 36.847656 -20.597656 37.046875 -21.597656 37.046875 -22.449219 C 37.046875 -26.699219 33.296875 -29.347656 28.746094 -29.347656 C 26.949219 -29.347656 24.347656 -28.898438 22.046875 -27.046875 C 20.996094 -28.246094 19.347656 -29.347656 16.449219 -29.347656 C 14.398438 -29.347656 13.199219 -28.746094 12.296875 -28.195312 C 11.75 -28.945312 10.648438 -29.347656 9.550781 -29.347656 C 8 -29.347656 6.398438 -28.597656 5.800781 -27.148438 L -2.199219 -4.097656 C -2.351562 -3.648438 -2.398438 -3.25 -2.398438 -2.898438 C -2.398438 -1.050781 -0.800781 0 0.949219 0 C 2.648438 0 4.347656 -1 5.050781 -3 L 11 -20.097656 C 12.046875 -22.246094 13.648438 -23.449219 15.148438 -23.449219 C 16.148438 -23.449219 16.847656 -22.898438 16.847656 -21.996094 C 16.847656 -21.746094 16.796875 -21.398438 16.648438 -21.046875 L 10.800781 -4.800781 C 10.550781 -4.148438 10.398438 -3.5 10.398438 -2.949219 C 10.398438 -1.050781 11.898438 0 13.597656 0 C 15.25 0 17.046875 -1 17.796875 -3.148438 L 23.546875 -19.398438 C 24.449219 -21.898438 26.347656 -23.449219 27.996094 -23.449219 C 28.898438 -23.449219 29.597656 -22.847656 29.597656 -21.898438 C 29.597656 -21.597656 29.546875 -21.246094 29.398438 -20.796875 L 25.597656 -10.449219 C 25.199219 -9.300781 24.996094 -8.148438 24.996094 -7.097656 C 24.996094 -2.550781 28.746094 0 33.148438 0 C 38.097656 0 43.59375 -3.199219 47.046875 -13.199219 C 47.144531 -13.546875 47.246094 -13.898438 47.246094 -14.25 C 47.246094 -15.847656 45.796875 -16.75 44.296875 -16.75 Z M 44.296875 -16.75 "/></g></g></g><g fill="#000000" fill-opacity="1"><g transform="translate(151.302509, 210.374986)"><g/></g></g><g fill="#000000" fill-opacity="1"><g transform="translate(170.299551, 210.374986)"><g><path d="M 33.796875 -14.75 C 32.796875 -11.648438 30.546875 -9.597656 27.898438 -9.597656 C 27.546875 -9.597656 27.199219 -9.648438 26.847656 -9.699219 L 33.796875 -30.246094 C 34.148438 -31.296875 34.398438 -32.597656 34.398438 -33.597656 C 34.398438 -39.945312 28.945312 -43.394531 23.699219 -43.394531 C 21.898438 -43.394531 20.296875 -42.796875 18.648438 -41.644531 C 18.449219 -42.496094 16.699219 -43.496094 14.847656 -43.496094 C 13.199219 -43.496094 11.5 -42.695312 10.699219 -40.347656 L -1.800781 -4.648438 C -2.050781 -4 -2.148438 -3.449219 -2.148438 -2.898438 C -2.148438 -0.449219 0 1.101562 2.199219 1.101562 C 3.800781 1.101562 5.449219 0.25 6.300781 -1.601562 C 8.199219 0.199219 11.300781 0.648438 12.648438 0.648438 C 16.449219 0.648438 20.546875 -0.851562 23.496094 -4 C 24.648438 -3.550781 25.898438 -3.300781 27.398438 -3.300781 C 33.296875 -3.300781 38.195312 -7.347656 39.796875 -13.449219 C 39.894531 -13.75 39.894531 -14.046875 39.894531 -14.347656 C 39.894531 -16.097656 38.445312 -17 36.945312 -17 C 35.597656 -17 34.246094 -16.296875 33.796875 -14.75 Z M 10.800781 -16.699219 L 15.699219 -30.648438 C 17.398438 -34.996094 19.949219 -36.144531 22.246094 -36.144531 C 24.246094 -36.144531 25.847656 -34.746094 25.847656 -32.546875 C 25.847656 -31.945312 25.699219 -31.296875 25.496094 -30.597656 L 20.046875 -14.5 C 18.199219 -15.847656 16.046875 -16.898438 12.949219 -16.898438 C 12.199219 -16.898438 11.449219 -16.847656 10.800781 -16.699219 Z M 12.398438 -5.648438 C 10.550781 -5.648438 9.5 -6.550781 9.5 -7.699219 C 9.5 -9.300781 11.148438 -10.597656 13.199219 -10.597656 C 14.949219 -10.597656 16.347656 -9.648438 17.648438 -8.449219 C 16.25 -6.597656 14.148438 -5.648438 12.398438 -5.648438 Z M 12.398438 -5.648438 "/></g></g></g><g fill="#000000" fill-opacity="1"><g transform="translate(202.244587, 210.374986)"><g><path d="M 31.347656 -16.898438 C 29.945312 -16.898438 28.398438 -16.046875 27.796875 -14.148438 C 25.847656 -8 22.699219 -5.949219 20.449219 -5.949219 C 19.597656 -5.949219 19.097656 -6.398438 19.097656 -7.199219 C 19.097656 -7.597656 19.199219 -8.097656 19.347656 -8.648438 L 24.949219 -24.847656 C 25.148438 -25.449219 25.246094 -25.996094 25.246094 -26.496094 C 25.246094 -28.695312 23.449219 -29.847656 21.597656 -29.847656 C 20.199219 -29.847656 18.75 -29.195312 17.949219 -27.945312 C 16.898438 -28.597656 14.949219 -29.347656 12.398438 -29.347656 C 9.097656 -29.347656 5.5 -27.546875 4.148438 -23.699219 L -0.550781 -10.25 C -0.851562 -9.347656 -1.050781 -8.449219 -1.050781 -7.550781 C -1.050781 -3.398438 2.300781 0 6.699219 0 C 9.050781 0 11.449219 -1.050781 13.296875 -2.699219 C 14.898438 -0.398438 18.449219 0 19.949219 0 C 24.097656 0 29.648438 -2.101562 32.847656 -10.199219 C 33.546875 -12.148438 34.097656 -13.398438 34.097656 -14.296875 C 34.097656 -16 32.796875 -16.898438 31.347656 -16.898438 Z M 14.847656 -17.398438 L 12.449219 -9.949219 C 11.398438 -6.699219 9.5 -5.949219 8.449219 -5.949219 C 7.347656 -5.949219 6.800781 -6.648438 6.800781 -7.800781 C 6.800781 -8.449219 6.949219 -9.050781 7.097656 -9.5 L 10.300781 -19.546875 C 11.25 -22.597656 12.648438 -22.996094 13.449219 -22.996094 C 14.398438 -22.996094 15.449219 -22.046875 15.449219 -20.347656 C 15.449219 -19.597656 15.25 -18.648438 14.847656 -17.398438 Z M 14.847656 -17.398438 "/></g></g></g><g fill="#000000" fill-opacity="1"><g transform="translate(228.390513, 210.374986)"><g><path d="M 28.496094 -14.5 C 26.296875 -8.5 23.449219 -5.949219 21.199219 -5.949219 C 20.246094 -5.949219 19.648438 -6.5 19.648438 -7.25 C 19.648438 -7.449219 19.699219 -7.699219 19.796875 -7.898438 L 23.898438 -19.546875 C 24.246094 -20.496094 24.347656 -21.398438 24.347656 -22.246094 C 24.347656 -26.246094 21.199219 -29.347656 17.148438 -29.347656 C 15.949219 -29.347656 15 -29.148438 13.949219 -28.695312 L 17.097656 -37.894531 C 17.347656 -38.695312 17.597656 -39.445312 17.597656 -40.097656 C 17.597656 -42.195312 15.949219 -43.394531 14.296875 -43.394531 C 12.347656 -43.394531 11.148438 -42.246094 10.199219 -39.597656 L -1.800781 -5.597656 C -2.050781 -4.898438 -2.148438 -4.25 -2.148438 -3.648438 C -2.148438 -1.398438 -0.5 0 1.199219 0 C 2.648438 0 4.148438 -0.898438 4.898438 -3 L 10.949219 -20.097656 C 12 -21.996094 13.699219 -23.449219 15.25 -23.449219 C 16.25 -23.449219 16.949219 -22.699219 16.949219 -21.796875 C 16.949219 -21.496094 16.898438 -21.199219 16.75 -20.898438 L 13.097656 -10.449219 C 12.699219 -9.25 12.5 -8.148438 12.5 -7.148438 C 12.5 -2.449219 16.5 0 20.746094 0 C 25.496094 0 30.945312 -2.949219 34.546875 -13.347656 C 34.648438 -13.699219 34.695312 -14 34.695312 -14.296875 C 34.695312 -15.847656 33.195312 -16.847656 31.597656 -16.847656 C 30.347656 -16.847656 28.996094 -16.148438 28.496094 -14.5 Z M 28.496094 -14.5 "/></g></g></g><g fill="#000000" fill-opacity="1"><g transform="translate(255.08635, 210.374986)"><g><path d="M 44.296875 -16.75 C 42.945312 -16.75 41.496094 -16 40.996094 -14.398438 C 38.796875 -8.398438 36.046875 -5.949219 33.695312 -5.949219 C 32.695312 -5.949219 32.195312 -6.550781 32.195312 -7.300781 C 32.195312 -7.550781 32.195312 -7.800781 32.296875 -8 L 36.546875 -19.648438 C 36.847656 -20.597656 37.046875 -21.597656 37.046875 -22.449219 C 37.046875 -26.699219 33.296875 -29.347656 28.746094 -29.347656 C 26.949219 -29.347656 24.347656 -28.898438 22.046875 -27.046875 C 20.996094 -28.246094 19.347656 -29.347656 16.449219 -29.347656 C 14.398438 -29.347656 13.199219 -28.746094 12.296875 -28.195312 C 11.75 -28.945312 10.648438 -29.347656 9.550781 -29.347656 C 8 -29.347656 6.398438 -28.597656 5.800781 -27.148438 L -2.199219 -4.097656 C -2.351562 -3.648438 -2.398438 -3.25 -2.398438 -2.898438 C -2.398438 -1.050781 -0.800781 0 0.949219 0 C 2.648438 0 4.347656 -1 5.050781 -3 L 11 -20.097656 C 12.046875 -22.246094 13.648438 -23.449219 15.148438 -23.449219 C 16.148438 -23.449219 16.847656 -22.898438 16.847656 -21.996094 C 16.847656 -21.746094 16.796875 -21.398438 16.648438 -21.046875 L 10.800781 -4.800781 C 10.550781 -4.148438 10.398438 -3.5 10.398438 -2.949219 C 10.398438 -1.050781 11.898438 0 13.597656 0 C 15.25 0 17.046875 -1 17.796875 -3.148438 L 23.546875 -19.398438 C 24.449219 -21.898438 26.347656 -23.449219 27.996094 -23.449219 C 28.898438 -23.449219 29.597656 -22.847656 29.597656 -21.898438 C 29.597656 -21.597656 29.546875 -21.246094 29.398438 -20.796875 L 25.597656 -10.449219 C 25.199219 -9.300781 24.996094 -8.148438 24.996094 -7.097656 C 24.996094 -2.550781 28.746094 0 33.148438 0 C 38.097656 0 43.59375 -3.199219 47.046875 -13.199219 C 47.144531 -13.546875 47.246094 -13.898438 47.246094 -14.25 C 47.246094 -15.847656 45.796875 -16.75 44.296875 -16.75 Z M 44.296875 -16.75 "/></g></g></g><g fill="#000000" fill-opacity="1"><g transform="translate(294.280256, 210.374986)"><g><path d="M 31.347656 -16.898438 C 29.945312 -16.898438 28.398438 -16.046875 27.796875 -14.148438 C 25.847656 -8 22.699219 -5.949219 20.449219 -5.949219 C 19.597656 -5.949219 19.097656 -6.398438 19.097656 -7.199219 C 19.097656 -7.597656 19.199219 -8.097656 19.347656 -8.648438 L 24.949219 -24.847656 C 25.148438 -25.449219 25.246094 -25.996094 25.246094 -26.496094 C 25.246094 -28.695312 23.449219 -29.847656 21.597656 -29.847656 C 20.199219 -29.847656 18.75 -29.195312 17.949219 -27.945312 C 16.898438 -28.597656 14.949219 -29.347656 12.398438 -29.347656 C 9.097656 -29.347656 5.5 -27.546875 4.148438 -23.699219 L -0.550781 -10.25 C -0.851562 -9.347656 -1.050781 -8.449219 -1.050781 -7.550781 C -1.050781 -3.398438 2.300781 0 6.699219 0 C 9.050781 0 11.449219 -1.050781 13.296875 -2.699219 C 14.898438 -0.398438 18.449219 0 19.949219 0 C 24.097656 0 29.648438 -2.101562 32.847656 -10.199219 C 33.546875 -12.148438 34.097656 -13.398438 34.097656 -14.296875 C 34.097656 -16 32.796875 -16.898438 31.347656 -16.898438 Z M 14.847656 -17.398438 L 12.449219 -9.949219 C 11.398438 -6.699219 9.5 -5.949219 8.449219 -5.949219 C 7.347656 -5.949219 6.800781 -6.648438 6.800781 -7.800781 C 6.800781 -8.449219 6.949219 -9.050781 7.097656 -9.5 L 10.300781 -19.546875 C 11.25 -22.597656 12.648438 -22.996094 13.449219 -22.996094 C 14.398438 -22.996094 15.449219 -22.046875 15.449219 -20.347656 C 15.449219 -19.597656 15.25 -18.648438 14.847656 -17.398438 Z M 14.847656 -17.398438 "/></g></g></g><g fill="#000000" fill-opacity="1"><g transform="translate(320.426182, 210.374986)"><g><path d="M 27.898438 -14.398438 C 25.699219 -8.398438 22.949219 -5.949219 20.597656 -5.949219 C 19.699219 -5.949219 19.199219 -6.398438 19.199219 -7.25 C 19.199219 -7.597656 19.296875 -8 19.449219 -8.5 L 23.347656 -19.597656 C 23.699219 -20.597656 23.898438 -21.496094 23.898438 -22.347656 C 23.898438 -26.347656 20.496094 -29.347656 16.5 -29.347656 C 14.546875 -29.347656 13 -28.898438 11.699219 -27.945312 C 11.398438 -28.847656 10.148438 -29.347656 8.800781 -29.347656 C 7.398438 -29.347656 6.050781 -28.695312 5.550781 -27.296875 L -2.800781 -3.949219 C -2.949219 -3.5 -3 -3.101562 -3 -2.699219 C -3 -0.851562 -1.550781 0.101562 0.0507812 0.101562 C 1.800781 0.101562 3.800781 -1 4.550781 -3.25 C 6.300781 -8.097656 8.699219 -14.949219 10.398438 -19.746094 C 11.75 -22.246094 13.5 -23.449219 14.898438 -23.449219 C 15.796875 -23.449219 16.449219 -22.847656 16.449219 -21.898438 C 16.449219 -21.546875 16.347656 -21.097656 16.199219 -20.648438 L 12.546875 -10.347656 C 12.148438 -9.199219 11.898438 -8.097656 11.898438 -7.050781 C 11.898438 -2.449219 15.699219 0 19.949219 0 C 25.046875 0 30.496094 -3.449219 33.945312 -13.199219 C 34.097656 -13.597656 34.195312 -14 34.195312 -14.347656 C 34.195312 -15.949219 32.746094 -16.796875 31.246094 -16.796875 C 29.898438 -16.796875 28.398438 -16.046875 27.898438 -14.398438 Z M 27.898438 -14.398438 "/></g></g></g><g fill="#000000" fill-opacity="1"><g transform="translate(346.572108, 210.374986)"><g><path d="M 13.449219 -33.945312 C 15.699219 -33.945312 17.546875 -35.796875 17.546875 -38.097656 C 17.546875 -40.347656 15.699219 -42.144531 13.449219 -42.144531 C 11.199219 -42.144531 9.347656 -40.347656 9.347656 -38.097656 C 9.347656 -35.796875 11.199219 -33.945312 13.449219 -33.945312 Z M 6.699219 -8.449219 L 12.199219 -24.148438 C 12.398438 -24.796875 12.648438 -25.496094 12.648438 -25.996094 C 12.648438 -28.195312 11 -29.347656 9.300781 -29.347656 C 7.75 -29.347656 6.097656 -28.246094 5.300781 -25.898438 C 3.699219 -21.199219 1.601562 -15.25 0 -10.597656 C -0.300781 -9.597656 -0.699219 -8.25 -0.699219 -7.398438 C -0.699219 -2.699219 3.199219 0 7.800781 0 C 12.699219 0 18.097656 -3 21.597656 -13.347656 C 21.699219 -13.648438 21.746094 -13.949219 21.746094 -14.25 C 21.746094 -15.796875 20.246094 -16.75 18.75 -16.75 C 17.398438 -16.75 16.046875 -16.046875 15.449219 -14.5 C 13.097656 -8 10.449219 -5.949219 8.449219 -5.949219 C 7.300781 -5.949219 6.550781 -6.699219 6.550781 -7.648438 C 6.550781 -7.898438 6.597656 -8.148438 6.699219 -8.449219 Z M 6.699219 -8.449219 "/></g></g></g></svg>